<svg version="1.1" xmlns="http://www.w3.org/2000/svg" xmlns:xlink="http://www.w3.org/1999/xlink">
  <defs>
    <symbol id="fr" viewBox="0 0 24 24" fill="none">
      <g clip-path="url(#a)">
        <path fill="#F0F0F0" d="M12 24c6.627 0 12-5.373 12-12S18.627 0 12 0 0 5.373 0 12s5.373 12 12 12Z"/>
        <path fill="#D80027" d="M24 12c0-5.16-3.257-9.558-7.826-11.254v22.508C20.744 21.558 24 17.159 24 12Z"/>
        <path fill="#0052B4" d="M0 12c0 5.16 3.257 9.559 7.826 11.254V.747C3.256 2.443 0 6.841 0 12.001Z"/>
      </g>
    </symbol>

    <symbol id="de" viewBox="0 0 24 24" fill="none">
      <g clip-path="url(#a)">
        <path fill="#FFDA44" d="M.746 16.175C2.442 20.745 6.84 24 12 24c5.16 0 9.558-3.257 11.253-7.826L12 15.132.746 16.175Z"/>
        <path fill="#000" d="M12 0C6.84 0 2.442 3.258.746 7.828L12 8.87l11.253-1.043C21.558 3.257 17.16 0 12 0Z"/>
        <path fill="#D80027" d="M.746 7.826A11.974 11.974 0 0 0 0 12c0 1.467.264 2.873.746 4.174h22.508c.482-1.3.746-2.707.746-4.174 0-1.468-.264-2.874-.746-4.174H.746Z"/>
      </g>
    </symbol>

    <symbol id="es" viewBox="0 0 24 24" fill="none">
      <g clip-path="url(#a)">
        <path fill="#FFDA44" d="M0 12c0 1.467.264 2.873.746 4.173L12 17.217l11.254-1.044c.482-1.3.746-2.706.746-4.174 0-1.468-.264-2.874-.746-4.174L12 6.782.746 7.825A11.974 11.974 0 0 0 0 12Z"/>
        <path fill="#D80027" d="M23.255 7.826C21.56 3.256 17.161 0 12.002 0 6.842 0 2.444 3.256.748 7.826h22.507ZM.747 16.174C2.443 20.744 6.841 24 12.001 24c5.16 0 9.558-3.256 11.253-7.826H.747Z"/>
      </g>
    </symbol>

    <symbol id="en" viewBox="0 0 24 24" fill="none">
      <g clip-path="url(#a)">
        <path fill="#F0F0F0" d="M12 24c6.627 0 12-5.373 12-12S18.627 0 12 0 0 5.373 0 12s5.373 12 12 12Z"/>
        <path fill="#D80027" d="M11.477 12H24a12.01 12.01 0 0 0-.413-3.13H11.478V12Zm0-6.262h10.761a12.064 12.064 0 0 0-2.769-3.13h-7.992v3.13ZM12 24c2.824 0 5.42-.976 7.47-2.609H4.53A11.948 11.948 0 0 0 12 24ZM1.761 18.26h20.477a11.93 11.93 0 0 0 1.348-3.13H.413c.3 1.116.758 2.167 1.348 3.13Z"/>
        <path fill="#0052B4" d="M5.559 1.874h1.093l-1.017.739.389 1.196-1.018-.74-1.017.74.336-1.033c-.896.746-1.68 1.62-2.328 2.594h.35l-.647.47c-.1.168-.197.34-.29.513l.31.951-.578-.419C1 7.19.868 7.5.75 7.817l.34 1.048h1.258l-1.017.74.388 1.195-1.017-.739-.61.443C.033 10.994 0 11.494 0 12h12V0C9.63 0 7.42.688 5.559 1.874Zm.465 8.926-1.018-.739-1.017.739.389-1.196-1.017-.739h1.257l.388-1.195.389 1.195h1.257l-1.017.74.389 1.195Zm-.389-4.691.389 1.195-1.018-.739-1.017.74.389-1.196-1.017-.74h1.257l.388-1.195.389 1.196h1.257l-1.017.739Zm4.693 4.691-1.017-.739-1.017.739.388-1.196-1.017-.739h1.257l.389-1.195.388 1.195h1.258l-1.018.74.389 1.195Zm-.389-4.691.389 1.195-1.017-.739-1.017.74.388-1.196-1.017-.74h1.257l.389-1.195.388 1.196h1.258l-1.018.739Zm0-3.496.389 1.196-1.017-.74-1.017.74.388-1.196-1.017-.739h1.257L9.311.678l.388 1.196h1.258l-1.018.739Z"/>
      </g>
    </symbol>

    <symbol id="it" viewBox="0 0 24 24" fill="none">
      <g clip-path="url(#a)">
        <path fill="#F0F0F0" d="M12 24c6.627 0 12-5.373 12-12S18.627 0 12 0 0 5.373 0 12s5.373 12 12 12Z"/>
        <path fill="#D80027" d="M24 12c0-5.16-3.257-9.56-7.826-11.255v22.507C20.744 21.557 24 17.159 24 11.999Z"/>
        <path fill="#6DA544" d="M0 12c0 5.16 3.256 9.558 7.826 11.253V.746C3.256 2.442 0 6.84 0 12Z"/>
      </g>
    </symbol>

    <symbol id="jp" viewBox="0 0 24 24" fill="none">
      <g clip-path="url(#a)">
        <path fill="#F0F0F0" d="M12 24c6.627 0 12-5.373 12-12S18.627 0 12 0 0 5.373 0 12s5.373 12 12 12Z"/>
        <path fill="#D80027" d="M12 17.218a5.217 5.217 0 1 0 0-10.435 5.217 5.217 0 0 0 0 10.435Z"/>
      </g>
    </symbol>

    <symbol id="kr" viewBox="0 0 24 24" fill="none">
      <g clip-path="url(#a)">
        <path fill="#F0F0F0" d="M12 24c6.627 0 12-5.373 12-12S18.627 0 12 0 0 5.373 0 12s5.373 12 12 12Z"/>
        <path fill="#D80027" d="M16.174 12c0 1.043-1.869 3.652-4.174 3.652-2.305 0-4.174-2.609-4.174-3.652a4.174 4.174 0 1 1 8.348 0Z"/>
        <path fill="#0052B4" d="M16.174 12a4.174 4.174 0 0 1-8.348 0"/>
        <path fill="#000" d="m17.534 14.583-1.107 1.106.738.738 1.106-1.107-.738-.737Zm-1.845 1.844-1.107 1.107.738.737 1.107-1.106-.738-.738Zm4.058.368L18.641 17.9l.738.738 1.106-1.106-.738-.738Zm-1.844 1.845-1.107 1.108.738.737 1.107-1.106-.738-.738Zm.737-2.95-1.106 1.106.738.738 1.107-1.107-.738-.737Zm-1.844 1.844L15.69 18.64l.737.738 1.107-1.107-.738-.738ZM15.69 5.358l2.95 2.952.738-.738-2.95-2.952-.739.738Zm-1.107 1.108 1.107 1.107.737-.738-1.107-1.107-.737.738Zm1.844 1.844 1.107 1.107.738-.738-1.107-1.107-.738.738Zm.368-4.058L17.9 5.36l.738-.738-1.107-1.107-.737.738Zm1.846 1.846 1.107 1.106.738-.737-1.107-1.107-.738.738ZM7.203 19.748l-2.951-2.951-.738.738 2.951 2.95.738-.737ZM8.31 18.64l-1.106-1.107-.738.738 1.107 1.107.738-.738Zm-1.844-1.844L5.36 15.689l-.737.738 1.106 1.107.738-.738Zm2.951.738-2.951-2.952-.738.738 2.951 2.951.738-.737ZM4.253 7.205l2.951-2.952-.738-.738-2.951 2.952.738.738ZM5.358 8.31 8.31 5.358l-.738-.737L4.62 7.57l.738.739Zm1.109 1.107 2.951-2.951-.738-.738-2.95 2.951.738.738Z"/>
      </g>
    </symbol>

    <symbol id="pl" viewBox="0 0 24 24" fill="none">
      <g clip-path="url(#a)">
        <path fill="#F0F0F0" d="M12 24c6.627 0 12-5.373 12-12S18.627 0 12 0 0 5.373 0 12s5.373 12 12 12Z"/>
        <path fill="#D80027" d="M24 12c0 6.627-5.373 12-12 12S0 18.627 0 12"/>
      </g>
    </symbol>

    <symbol id="pt" viewBox="0 0 24 24" fill="none">
      <g clip-path="url(#a)">
        <path fill="#6DA544" d="M0 12c0 5.16 3.256 9.559 7.826 11.254L8.87 12.001 7.826.747C3.256 2.443 0 6.841 0 12.001Z"/>
        <path fill="#D80027" d="M24 12c0-6.627-5.372-12-12-12-1.468 0-2.874.264-4.174.746v22.508c1.3.482 2.706.746 4.174.746 6.628 0 12-5.373 12-12Z"/>
        <path fill="#FFDA44" d="M7.826 16.174a4.174 4.174 0 1 0 0-8.347 4.174 4.174 0 0 0 0 8.347Z"/>
        <path fill="#D80027" d="M5.478 9.913v2.608a2.348 2.348 0 0 0 4.695 0V9.913H5.478Z"/>
        <path fill="#F0F0F0" d="M7.827 13.304a.784.784 0 0 1-.783-.783v-1.043h1.565v1.043a.784.784 0 0 1-.782.783Z"/>
      </g>
    </symbol>

    <symbol id="ru" viewBox="0 0 24 24" fill="none">
      <g clip-path="url(#a)">
        <path fill="#F0F0F0" d="M12 24c6.627 0 12-5.373 12-12S18.627 0 12 0 0 5.373 0 12s5.373 12 12 12Z"/>
        <path fill="#0052B4" d="M23.254 16.173c.482-1.3.746-2.706.746-4.173 0-1.468-.264-2.874-.746-4.174H.746A11.974 11.974 0 0 0 0 11.999c0 1.468.264 2.874.746 4.174L12 17.217l11.254-1.044Z"/>
        <path fill="#D80027" d="M12 24c5.16 0 9.559-3.257 11.254-7.827H.747C2.443 20.743 6.841 24 12.001 24Z"/>
      </g>
    </symbol>

    <symbol id="sv" viewBox="0 0 24 24" fill="none">
      <g clip-path="url(#a)">
        <path fill="#FFDA44" d="M12 24c6.627 0 12-5.373 12-12S18.627 0 12 0 0 5.373 0 12s5.373 12 12 12Z"/>
        <path fill="#0052B4" d="M9.39 10.435h14.508C23.13 4.547 18.096 0 11.999 0c-.896 0-1.768.1-2.608.285v10.15Zm-3.13 0V1.459a12.007 12.007 0 0 0-6.158 8.976H6.26Zm0 3.131H.103A12.007 12.007 0 0 0 6.26 22.54v-8.975Zm3.13 0v10.15c.84.185 1.713.284 2.61.284 6.096 0 11.13-4.547 11.898-10.434H9.39Z"/>
      </g>
    </symbol>

    <symbol id="nl" viewBox="0 0 24 24" fill="none">
      <g clip-path="url(#a)">
        <path fill="#F0F0F0" d="M12 24c6.627 0 12-5.373 12-12S18.627 0 12 0 0 5.373 0 12s5.373 12 12 12Z"/>
        <path fill="#A2001D" d="M12 0C6.84 0 2.442 3.256.746 7.826h22.507C21.558 3.256 17.16 0 12 0Z"/>
        <path fill="#0052B4" d="M12 24c5.16 0 9.558-3.256 11.253-7.826H.746C2.442 20.744 6.84 24 12 24Z"/>
      </g>
    </symbol>

    <symbol id="no" viewBox="0 0 24 24" fill="none">
      <g clip-path="url(#a)">
        <path fill="#F0F0F0" d="M12 24c6.627 0 12-5.373 12-12S18.627 0 12 0 0 5.373 0 12s5.373 12 12 12Z"/>
        <path fill="#D80027" d="M.413 15.131a12.01 12.01 0 0 0 4.282 6.39v-6.39H.413Zm10.543 8.824c.344.03.692.046 1.043.046 5.545 0 10.21-3.76 11.587-8.87h-12.63v8.824ZM23.586 8.87C22.21 3.76 17.544 0 12 0c-.352 0-.7.017-1.044.046V8.87h12.63ZM4.695 2.48A12.01 12.01 0 0 0 .413 8.87h4.282V2.48Z"/>
        <path fill="#0052B4" d="M23.898 10.434H9.391V.284a11.97 11.97 0 0 0-3.13 1.176v8.975H.1a12.104 12.104 0 0 0 0 3.13h6.16v8.976c.97.53 2.021.928 3.13 1.174v-10.15h14.507a12.118 12.118 0 0 0 0-3.13Z"/>
      </g>
    </symbol>

    <symbol id="da" viewBox="0 0 24 24" fill="none">
      <g clip-path="url(#a)">
        <path fill="#F0F0F0" d="M12 24c6.627 0 12-5.373 12-12S18.627 0 12 0 0 5.373 0 12s5.373 12 12 12Z"/>
        <path fill="#D80027" d="M9.392 10.435h14.507C23.132 4.547 18.097 0 12 0c-.896 0-1.768.1-2.608.285v10.15Zm-3.132.001V1.46a12.008 12.008 0 0 0-6.158 8.976H6.26Zm0 3.13H.103A12.007 12.007 0 0 0 6.26 22.54v-8.975Zm3.132 0v10.15c.84.185 1.712.284 2.608.284 6.097 0 11.132-4.547 11.899-10.434H9.392Z"/>
      </g>
    </symbol>

    <symbol id="fi" viewBox="0 0 24 24" fill="none">
      <g clip-path="url(#a)">
        <path fill="#F0F0F0" d="M12 24c6.627 0 12-5.373 12-12S18.627 0 12 0 0 5.373 0 12s5.373 12 12 12Z"/>
        <path fill="#0052B4" d="M23.898 10.435H9.391V.285C8.282.531 7.231.93 6.261 1.46v8.976H.1a12.102 12.102 0 0 0 0 3.13h6.16v8.976c.97.53 2.021.928 3.13 1.174v-10.15h14.507a12.121 12.121 0 0 0 0-3.13Z"/>
      </g>
    </symbol>

    <symbol id="tr" viewBox="0 0 24 24" fill="none">
      <g clip-path="url(#a)">
        <path fill="#D80027" d="M12 24c6.627 0 12-5.373 12-12S18.627 0 12 0 0 5.373 0 12s5.373 12 12 12Z"/>
        <path fill="#F0F0F0" d="m11.509 9.805.984 1.357 1.595-.517L13.102 12l.984 1.357-1.594-.519-.986 1.356.001-1.677L9.913 12l1.595-.518V9.806Z"/>
        <path fill="#F0F0F0" d="M8.822 15.39a3.391 3.391 0 1 1 1.613-6.374 4.174 4.174 0 1 0 0 5.967c-.48.26-1.029.408-1.613.408Z"/>
      </g>
    </symbol>

    <symbol id="vi" viewBox="0 0 24 24" fill="none">
      <g clip-path="url(#a)">
        <path fill="#D80027" d="M12 24c6.627 0 12-5.373 12-12S18.627 0 12 0 0 5.373 0 12s5.373 12 12 12Z"/>
        <path fill="#FFDA44" d="m12 6.261 1.296 3.986h4.19l-3.39 2.463 1.295 3.986-3.39-2.463-3.391 2.463 1.295-3.986-3.39-2.463h4.19l1.296-3.986Z"/>
      </g>
    </symbol>

    <symbol id="ar" viewBox="0 0 24 24" fill="none">
      <g clip-path="url(#a)">
        <path fill="#F0F0F0" d="M12 24c6.627 0 12-5.373 12-12S18.627 0 12 0 0 5.373 0 12s5.373 12 12 12Z"/>
        <path fill="#000" d="m6.782 16.173 1.044 7.08c1.3.482 2.706.746 4.174.746 5.16 0 9.558-3.256 11.253-7.826H6.783Z"/>
        <path fill="#6DA544" d="M6.782 7.827 7.826.747A11.96 11.96 0 0 1 12 0c5.16 0 9.558 3.257 11.253 7.827H6.783Z"/>
        <path fill="#A2001D" d="M0 12c0 5.16 3.257 9.558 7.826 11.254V.746C3.256 2.442 0 6.84 0 12Z"/>
      </g>
    </symbol>

    <symbol id="zh" viewBox="0 0 24 24" fill="none">
      <g clip-path="url(#a)">
        <path fill="#D80027" d="M12 24c6.627 0 12-5.373 12-12S18.627 0 12 0 0 5.373 0 12s5.373 12 12 12Z"/>
        <path fill="#FFDA44" d="m6.567 7.301 1.036 3.188h3.352l-2.71 1.973 1.036 3.188-2.714-1.969-2.714 1.969 1.04-3.188L2.18 10.49h3.35L6.567 7.3Zm7.659 11.284-.792-.975-1.172.454.68-1.054-.793-.98 1.215.323.684-1.054.066 1.256 1.218.323-1.176.45.07 1.257Zm1.576-2.86.375-1.2-1.027-.726 1.257-.019.37-1.2.408 1.19 1.256-.013-1.008.75.403 1.19-1.026-.726-1.008.754Zm2.124-6.918-.553 1.13.9.876-1.243-.178-.553 1.125-.215-1.238-1.247-.178 1.115-.586-.215-1.242.9.877 1.11-.586ZM14.26 5.385l-.095 1.252 1.168.473-1.224.3-.089 1.256-.66-1.068-1.224.3.81-.961-.665-1.064 1.167.473.811-.961Z"/>
      </g>
    </symbol>

    <symbol id="gr" viewBox="0 0 24 24" fill="none">
      <g clip-path="url(#a)">
        <path fill="#F0F0F0" d="M12 24c6.627 0 12-5.373 12-12S18.627 0 12 0 0 5.373 0 12s5.373 12 12 12Z"/>
        <path fill="#338AF3" d="M12 8.87h11.587a11.932 11.932 0 0 0-1.348-3.13H12v3.13ZM4.53 21.391h14.94a12.06 12.06 0 0 0 2.77-3.13H1.761a12.064 12.064 0 0 0 2.769 3.13ZM4.174 2.904a12.059 12.059 0 0 0-2.412 2.835h2.412V2.904ZM12 12V8.87H7.304V12h-3.13V8.87H.414A12.013 12.013 0 0 0 0 12c0 1.083.144 2.132.413 3.13h23.174A12.01 12.01 0 0 0 24 12H12Z"/>
        <path fill="#338AF3" d="M12 0c-1.666 0-3.253.34-4.695.954V5.74H12V2.61h7.47A11.949 11.949 0 0 0 12 0Z"/>
      </g>
    </symbol>

    <clipPath id="a">
      <path fill="#fff" d="M0 0h24v24H0z"/>
    </clipPath>
  </defs>
</svg>
