<svg version="1.1" xmlns="http://www.w3.org/2000/svg" xmlns:xlink="http://www.w3.org/1999/xlink">
  <defs>
    <symbol id="plus" viewBox="0 0 24 24" fill="none">
      <path stroke="currentColor" stroke-linecap="round" stroke-linejoin="round" stroke-width="2" d="M12 5v14m-7-7h14"/>
    </symbol>

    <symbol id="avatar" viewBox="0 0 24 24" fill="none">
      <path stroke="currentColor" stroke-linecap="round" stroke-linejoin="round" stroke-width="2" d="M3 20c2.336-2.477 5.507-4 9-4 3.493 0 6.664 1.523 9 4M16.5 7.5a4.5 4.5 0 1 1-9 0 4.5 4.5 0 0 1 9 0Z"/>
    </symbol>

    <symbol id="logout" viewBox="0 0 24 24" fill="none">
      <path stroke="currentColor" stroke-linecap="round" stroke-linejoin="round" stroke-width="2" d="m16 17 5-5m0 0-5-5m5 5H9m0-9H7.8c-1.68 0-2.52 0-3.162.327a3 3 0 0 0-1.311 1.311C3 5.28 3 6.12 3 7.8v8.4c0 1.68 0 2.52.327 3.162a3 3 0 0 0 1.311 1.311C5.28 21 6.12 21 7.8 21H9"/>
    </symbol>

    <symbol id="arrow-left" viewBox="0 0 24 24" fill="none">
      <path stroke="currentColor" stroke-linecap="round" stroke-linejoin="round" stroke-width="2" d="m15 18-6-6 6-6"/>
    </symbol>

    <symbol id="arrow-right" viewBox="0 0 24 24" fill="none">
      <path stroke="currentColor" stroke-linecap="round" stroke-linejoin="round" stroke-width="2" d="m9 18 6-6-6-6"/>
    </symbol>

    <symbol id="cross" viewBox="0 0 24 24" fill="none">
      <path stroke="currentColor" stroke-linecap="round" stroke-linejoin="round" stroke-width="2" d="M17 7 7 17M7 7l10 10"/>
    </symbol>

    <symbol id="emoji-happy" viewBox="0 0 24 24" fill="none">
      <path stroke="currentColor" stroke-linecap="round" stroke-linejoin="round" stroke-width="2" d="M8 14s1.5 2 4 2 4-2 4-2m1-4.76c-.395.485-.935.76-1.5.76s-1.09-.275-1.5-.76m-4 0c-.395.485-.935.76-1.5.76S7.41 9.725 7 9.24M22 12c0 5.523-4.477 10-10 10S2 17.523 2 12 6.477 2 12 2s10 4.477 10 10Z"/>
    </symbol>

    <symbol id="check" viewBox="0 0 24 24" fill="none">
      <path stroke="currentColor" stroke-linecap="round" stroke-linejoin="round" stroke-width="2" d="M20 6 9 17l-5-5"/>
    </symbol>

    <symbol id="pencil" viewBox="0 0 24 24" fill="none">
      <path stroke="currentColor" stroke-linecap="round" stroke-linejoin="round" stroke-width="2" d="M12 20h9M3 20h1.675c.489 0 .733 0 .964-.055.204-.05.399-.13.578-.24.201-.123.374-.296.72-.642L19.5 6.5a2.121 2.121 0 0 0-3-3L3.937 16.063c-.346.346-.519.519-.642.72a2 2 0 0 0-.24.578c-.055.23-.055.475-.055.965V20Z"/>
    </symbol>

    <symbol id="trash" viewBox="0 0 24 24" fill="none">
      <path stroke="currentColor" stroke-linecap="round" stroke-linejoin="round" stroke-width="2" d="M16 6v-.8c0-1.12 0-1.68-.218-2.108a2 2 0 0 0-.874-.874C14.48 2 13.92 2 12.8 2h-1.6c-1.12 0-1.68 0-2.108.218a2 2 0 0 0-.874.874C8 3.52 8 4.08 8 5.2V6m2 5.5v5m4-5v5M3 6h18m-2 0v11.2c0 1.68 0 2.52-.327 3.162a3 3 0 0 1-1.311 1.311C16.72 22 15.88 22 14.2 22H9.8c-1.68 0-2.52 0-3.162-.327a3 3 0 0 1-1.311-1.311C5 19.72 5 18.88 5 17.2V6"/>
    </symbol>
  </defs>
</svg>
